<?xml version="1.0" encoding="UTF-8" standalone="no"?>
<!-- Generator: Adobe Illustrator 18.0.0, SVG Export Plug-In . SVG Version: 6.00 Build 0)  -->

<svg
   xmlns:dc="http://purl.org/dc/elements/1.1/"
   xmlns:cc="http://creativecommons.org/ns#"
   xmlns:rdf="http://www.w3.org/1999/02/22-rdf-syntax-ns#"
   xmlns:svg="http://www.w3.org/2000/svg"
   xmlns="http://www.w3.org/2000/svg"
   xmlns:sodipodi="http://sodipodi.sourceforge.net/DTD/sodipodi-0.dtd"
   xmlns:inkscape="http://www.inkscape.org/namespaces/inkscape"
   version="1.1"
   id="Layer_1"
   x="0px"
   y="0px"
   viewBox="0 0 64 64"
   enable-background="new 0 0 64 64"
   xml:space="preserve"
   sodipodi:docname="open.svg"
   inkscape:version="0.92.2 2405546, 2018-03-11"><metadata
   id="metadata33"><rdf:RDF><cc:Work
       rdf:about=""><dc:format>image/svg+xml</dc:format><dc:type
         rdf:resource="http://purl.org/dc/dcmitype/StillImage" /><dc:title></dc:title></cc:Work></rdf:RDF></metadata><defs
   id="defs31">
	
	
	
	

		
	
		
	
		
	
		
	
			
		
			
		
			
		
			
		</defs><sodipodi:namedview
   pagecolor="#ffffff"
   bordercolor="#666666"
   borderopacity="1"
   objecttolerance="10"
   gridtolerance="10"
   guidetolerance="10"
   inkscape:pageopacity="0"
   inkscape:pageshadow="2"
   inkscape:window-width="1920"
   inkscape:window-height="1051"
   id="namedview29"
   showgrid="false"
   inkscape:pagecheckerboard="true"
   inkscape:zoom="3.6875"
   inkscape:cx="32"
   inkscape:cy="32"
   inkscape:window-x="0"
   inkscape:window-y="0"
   inkscape:window-maximized="1"
   inkscape:current-layer="Layer_1" />
<path
   style="fill:#ff6a4d"
   inkscape:connector-curvature="0"
   id="path2"
   d="M 32,0 C 49.7,0 64,14.3 64,32 64,49.7 49.7,64 32,64 14.3,64 0,49.7 0,32 0,14.3 14.3,0 32,0 Z" /><path
   style="fill:#ffb133;stroke-width:1.15067816"
   inkscape:connector-curvature="0"
   id="path8"
   d="M 48.315091,22.186269 V 48.651868 H 12.644068 V 18.734235 c 0,-1.265746 1.03561,-2.301357 2.301356,-2.301357 h 14.038274 c 0.460271,0 1.03561,0.115068 1.380814,0.460272 l 3.336966,2.531492 c 0.345204,0.345203 0.920543,0.460271 1.380814,0.460271 h 10.931443 c 1.380814,0 2.301356,1.03561 2.301356,2.301356 z" /><path
   style="fill:#ffffff;stroke-width:1.15067816"
   inkscape:connector-curvature="0"
   id="path14"
   d="M 44.863057,48.651868 H 16.096102 V 26.788982 c 0,-1.265746 1.265746,-2.301356 2.531492,-2.301356 H 42.5617 c 1.265746,0 2.301357,1.03561 2.301357,2.301356 z" /><path
   style="fill:#ffd731;stroke-width:1.15067816"
   inkscape:connector-curvature="0"
   id="path20"
   d="m 51.767126,27.93966 c 1.610949,0 2.646559,1.495882 2.186288,2.991764 L 48.315091,48.651868 H 12.644068 l 7.479408,-19.216326 c 0.345203,-0.920543 1.150678,-1.495882 2.186288,-1.495882 h 29.342294 z" />
</svg>