<?xml version="1.0" encoding="UTF-8" standalone="no"?>
<!-- Generator: Adobe Illustrator 18.0.0, SVG Export Plug-In . SVG Version: 6.00 Build 0)  -->

<svg
   xmlns:dc="http://purl.org/dc/elements/1.1/"
   xmlns:cc="http://creativecommons.org/ns#"
   xmlns:rdf="http://www.w3.org/1999/02/22-rdf-syntax-ns#"
   xmlns:svg="http://www.w3.org/2000/svg"
   xmlns="http://www.w3.org/2000/svg"
   xmlns:sodipodi="http://sodipodi.sourceforge.net/DTD/sodipodi-0.dtd"
   xmlns:inkscape="http://www.inkscape.org/namespaces/inkscape"
   version="1.1"
   id="Layer_1"
   x="0px"
   y="0px"
   viewBox="0 0 64 64"
   enable-background="new 0 0 64 64"
   xml:space="preserve"
   sodipodi:docname="save.svg"
   inkscape:version="0.92.2 2405546, 2018-03-11"><metadata
   id="metadata51"><rdf:RDF><cc:Work
       rdf:about=""><dc:format>image/svg+xml</dc:format><dc:type
         rdf:resource="http://purl.org/dc/dcmitype/StillImage" /><dc:title></dc:title></cc:Work></rdf:RDF></metadata><defs
   id="defs49" /><sodipodi:namedview
   pagecolor="#ffffff"
   bordercolor="#666666"
   borderopacity="1"
   objecttolerance="10"
   gridtolerance="10"
   guidetolerance="10"
   inkscape:pageopacity="0"
   inkscape:pageshadow="2"
   inkscape:window-width="743"
   inkscape:window-height="480"
   id="namedview47"
   showgrid="false"
   inkscape:pagecheckerboard="true"
   inkscape:zoom="3.6875"
   inkscape:cx="32"
   inkscape:cy="32"
   inkscape:window-x="0"
   inkscape:window-y="0"
   inkscape:window-maximized="0"
   inkscape:current-layer="Layer_1" />
<g
   id="g44">
	<g
   id="g6">
		<g
   id="g4">
			<path
   fill="#FF6A4D"
   d="M32,0c17.7,0,32,14.3,32,32S49.7,64,32,64S0,49.7,0,32S14.3,0,32,0z"
   id="path2" />
		</g>
	</g>
	<g
   id="g12">
		<g
   id="g10">
			<path
   fill="#FFFFFF"
   d="M41.8,10l8.2,7.8v34.8c0,0.8-0.7,1.4-1.5,1.4h-33c-0.8,0-1.5-0.6-1.5-1.4V11.4c0-0.8,0.7-1.4,1.5-1.4     H41.8z"
   id="path8" />
		</g>
	</g>
	<g
   id="g18">
		<g
   id="g16">
			<polygon
   fill="#D3D5DD"
   points="50,17.8 41.8,17.8 41.8,10    "
   id="polygon14" />
		</g>
	</g>
	<g
   id="g24">
		<g
   id="g22">
			<path
   fill="#D3D5DD"
   d="M45,21c0.5,0,1,0.5,1,1s-0.5,1-1,1H19c-0.6,0-1-0.5-1-1s0.4-1,1-1H45z"
   id="path20" />
		</g>
	</g>
	<g
   id="g30">
		<g
   id="g28">
			<rect
   x="22"
   y="46"
   fill="#37D196"
   width="20"
   height="3"
   id="rect26" />
		</g>
	</g>
	<g
   id="g36">
		<g
   id="g34">
			<polygon
   fill="#37D196"
   points="36.8,35.4 38.5,37.3 32,43 25.5,37.3 27.2,35.4 30.7,38.6 30.7,27 33.3,27 33.3,38.6    "
   id="polygon32" />
		</g>
	</g>
	<g
   id="g42">
		<g
   id="g40">
			<path
   fill="#D3D5DD"
   d="M36.8,16c0.5,0,1,0.5,1,1s-0.5,1-1,1H19c-0.6,0-1-0.5-1-1s0.4-1,1-1H36.8z"
   id="path38" />
		</g>
	</g>
</g>
</svg>